+15_ID_stride2.mot
nRows=13
nColumns=38

name +15_ID_stride2.mot
datacolumns 38
datarows 13
range 0.3050000000 0.3650000000
endheader
time	pelvis_tilt_moment	pelvis_list_moment	pelvis_rotation_moment	pelvis_tx_force	pelvis_ty_force	pelvis_tz_force	hip_flexion_r_moment	hip_adduction_r_moment	hip_rotation_r_moment	knee_angle_r_moment	ankle_angle_r_moment	subtalar_angle_r_moment	mtp_angle_r_moment	hip_flexion_l_moment	hip_adduction_l_moment	hip_rotation_l_moment	knee_angle_l_moment	ankle_angle_l_moment	subtalar_angle_l_moment	mtp_angle_l_moment	lumbar_extension_moment	lumbar_bending_moment	lumbar_rotation_moment	arm_flex_r_moment	arm_add_r_moment	arm_rot_r_moment	elbow_flex_r_moment	pro_sup_r_moment	wrist_flex_r_moment	wrist_dev_r_moment	arm_flex_l_moment	arm_add_l_moment	arm_rot_l_moment	elbow_flex_l_moment	pro_sup_l_moment	wrist_flex_l_moment	wrist_dev_l_moment
        0.3050000000	       21.1288000670	        0.4110413406	       37.9269922789	        1.1482335790	      -27.9939261684	     -104.8237156547	      -11.6091183744	       -8.6358887962	       -0.2511056658	       -1.1784460518	        2.6953259680	       -0.5555564152	        0.1464894189	        4.0471526233	      -44.5721782934	      -16.1904596101	       15.3251579687	     -187.6041624033	       21.6323946988	       -0.0361900527	       29.8918775834	        9.2561622938	       39.7576442510	        8.6559783309	        5.5149653315	        4.1559373717	        6.0899994869	        0.0055652222	        0.5674561936	       -0.4239601675	        0.9971169551	       -1.6589990554	       -3.3351627319	        5.7690803443	       -0.2244769668	       -0.2731679834	       -0.5856821516	
        0.3100000000	       25.6554188172	       -6.6988936058	       27.0329045310	        2.3973709344	      -26.5265922737	     -120.5032688061	      -14.7462702166	      -13.0487763524	        0.4217489929	       -1.6056403527	        2.7561744317	       -0.6628696605	        0.1449541135	       10.8233290702	      -42.1405786419	      -10.1637778665	       11.5580062722	     -176.9729847096	       22.9645204486	       -0.0407499466	       18.7739244346	        4.3893327595	       39.1256743282	        8.6751599600	        5.2890840867	        3.9965881104	        5.6689649064	        0.0112601867	        0.5407811816	       -0.3856338862	        0.9666576894	       -1.7816697802	       -3.3461259528	        5.2344992343	       -0.2164084292	       -0.2810685068	       -0.5363442544	
        0.3150000000	       26.8408686437	      -19.4798356985	       14.2697522439	       -1.3121227516	      -15.7121358109	     -122.6866616487	      -19.0052308075	      -16.1613964970	        0.9157977479	       -2.2852582208	        2.8078099061	       -0.7712864670	        0.1440069440	       12.4425111599	      -41.5991173721	       -3.0180738172	        4.5445297544	     -165.7498600673	       23.6717867586	       -0.0444343159	        9.7328044939	       -0.7327772704	       37.0735066284	        8.3529119108	        4.9164024251	        3.7260919320	        5.2156378025	        0.0146166690	        0.5034173870	       -0.3472746167	        0.8071255588	       -1.7920905206	       -3.1873400905	        4.6696957538	       -0.2031759647	       -0.2777990756	       -0.4814234438	
        0.3200000000	       26.2364789635	      -35.5502299519	        3.5610129516	       -7.7291905384	       -2.0108735235	     -109.3490620528	      -24.1147695303	      -17.4087180244	        1.1767215692	       -3.2315633576	        2.8531790117	       -0.8742793693	        0.1438693318	        8.8646131797	      -40.5441946126	        2.0849427748	       -4.2441492852	     -153.7361007822	       23.2933411302	       -0.0473629008	        2.7387760195	       -5.9174620099	       34.4601667373	        7.8355279879	        4.4248206540	        3.3822478585	        4.7474196962	        0.0164169840	        0.4590141348	       -0.3100402177	        0.5547392763	       -1.6341604679	       -2.9176602713	        4.0874878182	       -0.1865212338	       -0.2611777908	       -0.4236001098	
        0.3250000000	       25.3506379924	      -47.3807306334	       -0.1122664935	      -13.9042289467	        7.3199130950	      -91.7937358904	      -29.5674308779	      -16.5409168650	        1.1437447446	       -4.4291225008	        2.8973986216	       -0.9634607833	        0.1444394136	        7.4418883195	      -37.3121646155	        2.6453528551	      -11.6888029031	     -140.8188677264	       22.3965342625	       -0.0482695093	       -2.0671459809	      -10.7711898801	       31.8481817245	        7.2291668164	        3.8538372727	        3.0095052563	        4.2647882996	        0.0182697831	        0.4128553015	       -0.2730784713	        0.2024450836	       -1.3913383128	       -2.5977782966	        3.4839869246	       -0.1681233312	       -0.2405313787	       -0.3642694698	
        0.3300000000	       23.7000020036	      -49.9857466727	       -0.0280351799	      -18.5401406206	        8.7928908245	      -73.7054422241	      -35.1120572984	      -12.4464706421	        0.8740100476	       -5.9744305857	        2.9415170602	       -1.0343993425	        0.1465965050	        8.7665034002	      -30.3615629344	        1.7539240060	      -14.0642420178	     -126.6625789124	       21.0018813967	       -0.0479173175	       -4.8941738186	      -14.9121935667	       29.6402371492	        6.5628376266	        3.2111616682	        2.6333167415	        3.7551146704	        0.0210562374	        0.3679250703	       -0.2347438077	       -0.2970924535	       -1.0699608945	       -2.2544572451	        2.8450312816	       -0.1485531676	       -0.2196886435	       -0.3030343577	
        0.3350000000	       20.0162894268	      -42.9175968602	        4.3698483556	      -20.5949935416	       -0.1462013203	      -58.1711430102	      -40.4608757169	       -5.5302038617	        0.4692313705	       -7.9490867068	        2.9840864908	       -1.0858077946	        0.1497621474	       19.2155161102	      -21.8382509745	        0.6138174229	      -13.6704578138	     -111.0952666513	       19.6036056115	       -0.0442464376	       -6.1451942964	      -17.8857802345	       28.2134733622	        5.8683522593	        2.5258547241	        2.2866944093	        3.1980235771	        0.0263078777	        0.3273008716	       -0.1922910594	       -0.9727099054	       -0.7187677210	       -1.9271672031	        2.1525344599	       -0.1285902667	       -0.2032466707	       -0.2388989837	
        0.3400000000	       12.3327715088	      -23.5386045337	       10.3262448805	      -20.5959358916	      -24.6728268617	      -43.9891032598	      -45.5346416779	        3.4810452685	        0.1491355414	      -10.5226265730	        3.0192482850	       -1.1182365977	        0.1534527959	       36.3777060859	      -14.0258779115	        1.0184485732	       -7.3697253471	      -94.1516933453	       17.9045141172	       -0.0364821695	       -6.3619774549	      -19.3996327561	       27.6379101008	        5.1328792576	        1.8149252850	        1.9892944385	        2.5639885079	        0.0350534837	        0.2923713082	       -0.1423301600	       -1.8600397736	       -0.3700624857	       -1.6369322770	        1.3839209913	       -0.1083411315	       -0.1934757766	       -0.1699011183	
        0.3450000000	        0.6832708578	        0.1078502102	       17.0291467400	      -17.7815904763	      -64.4812843614	      -26.4165258344	      -50.4104394365	       13.5239136457	        0.1671272463	      -13.8353110528	        3.0377281426	       -1.1330270801	        0.1569299641	       55.2197189864	       -8.4493894471	        2.7533519154	        0.1676024247	      -77.0714300661	       15.5424010366	       -0.0237420331	       -5.9267390845	      -18.9616650720	       27.9569765951	        4.3183726296	        1.1003932527	        1.7511712450	        1.8267717070	        0.0475397010	        0.2630818040	       -0.0820475938	       -2.9579085662	       -0.0572492042	       -1.3946189902	        0.5255434886	       -0.0875785659	       -0.1923716376	       -0.0941801224	
        0.3500000000	      -12.2806651788	       21.5756252673	       24.7186850804	      -11.8927464197	     -119.2106295103	       -2.3452679846	      -54.3575947791	       23.1047963280	        0.5241346481	      -17.7738095707	        3.0354654987	       -1.1303679221	        0.1590727755	       69.1616188436	       -4.0267067467	        3.7917437006	        5.0962244193	      -62.2956538515	       12.9065322540	       -0.0049967336	       -5.6364698145	      -17.1473629935	       28.7240772984	        3.3719638042	        0.4222767433	        1.5813380566	        0.9716559027	        0.0635045565	        0.2383867512	       -0.0099311998	       -4.2300015794	        0.1727060980	       -1.2077768820	       -0.4193421894	       -0.0660017169	       -0.1965382453	       -0.0109537186	
        0.3550000000	      -22.8065427952	       36.9017541885	       32.7539123573	       -3.1874156932	     -184.0369339666	       28.0076505735	      -58.2471872538	       31.2819006557	        1.4322361180	      -22.3901123164	        3.0187741948	       -1.1175379310	        0.1597723495	       76.9492429439	        0.7390976744	        4.1133181129	        7.0121385402	      -50.0562057736	       10.5797586354	        0.0197917628	       -5.5622769440	      -13.7525265574	       29.6554757149	        2.2920555030	       -0.1795576295	        1.4723011065	        0.0273877374	        0.0818484871	        0.2165849229	        0.0715058805	       -5.5951136237	        0.2701418964	       -1.0678421006	       -1.4117328595	       -0.0439356159	       -0.2070572629	        0.0771711245	
        0.3600000000	      -28.2603835337	       44.1770113378	       40.2925136172	        7.5388766387	     -252.5123437977	       64.5200119247	      -63.1178352474	       37.1588119359	        2.7894736608	      -27.9825065929	        2.8936658226	       -1.0728278529	        0.1554736473	       79.2298289681	        8.0834788511	        2.8295016267	        6.1178012912	      -40.7348504631	        9.0574108845	        0.0515898077	       -6.5413432800	       -9.6082186832	       30.2559487698	        1.0491559539	       -0.6549129571	        1.4211986141	       -0.9822671999	        0.1013831517	        0.1970217853	        0.1603121308	       -6.9673024403	        0.2445846149	       -0.9754211575	       -2.4102933000	       -0.0217448278	       -0.2198501691	        0.1676577385	
        0.3650000000	      -25.7468887242	       43.5012509060	       45.7413790499	       17.4243723982	     -308.9538265598	       99.6730018826	      -69.0078515810	       40.1769702059	        4.3932132486	      -34.3301433244	        2.6745698764	       -0.9988974791	        0.1461422616	       78.7852650852	       18.1168901179	        1.2775608482	        4.7343582835	      -32.3947848911	        8.2327302968	        0.0893173262	       -8.5896947311	       -5.5379968439	       30.0288136799	       -0.2992276937	       -0.9582793527	        1.4331769785	       -1.9690563525	        0.1198116721	        0.1792686503	        0.2486213135	       -8.2086995075	        0.0436175897	       -0.9251988485	       -3.3244548593	       -0.0008517971	       -0.2317901650	        0.2531986749	
